# xmcd
#
# Track frame offsets:
#   150
#   22716
#   37905
#   56458
#   68548
#   86106
#   100641
#   118038
#   133374
#   159409
#   172551
#   185211
#   196039
#   218146
#   231983
#   250299
#   263315
#   277815
#
# Disc length: 3872 seconds
#
# Revision: 0
# Processed by: cddbd v1.5.1PL2 Copyright (c) Steve Scherf et al.
# Submitted via: Click'N Design 3D 4.8
#
DISCID=e30f1e12
DTITLE=COUNTRY - COUNTRY
DYEAR=2006
DGENRE=Country
TTITLE0=PICTURES
TTITLE1=SAVE A HORSE RIDE A COWBOY
TTITLE2=HOW DO YOU GEY THAT LONELY
TTITLE3=NOBODY BUT ME 
TTITLE4=WHISKEY LULLABY
TTITLE5=C'EST LA VIVE
TTITLE6=RED NECK YAHT CLUB
TTITLE7=FIGHTIN FOR 
TTITLE8=TRAVELING SOILDER
TTITLE9=WERE MAKING UP
TTITLE10=BAD THIINGS
TTITLE11=WHATS A GUY GOTTA DO
TTITLE12=IF YOU DONT WANNA LOVE ME 
TTITLE13=MY KIND OF MUSIC
TTITLE14=HONKYDONK BADONKADONK
TTITLE15=GIRLS GONE WILD
TTITLE16=DRUNKER THAN ME
TTITLE17=I AINT YOUR MAMA
EXTD=
EXTT0=
EXTT1=
EXTT2=
EXTT3=
EXTT4=
EXTT5=
EXTT6=
EXTT7=
EXTT8=
EXTT9=
EXTT10=
EXTT11=
EXTT12=
EXTT13=
EXTT14=
EXTT15=
EXTT16=
EXTT17=
PLAYORDER=
